<svg xmlns="http://www.w3.org/2000/svg" viewBox="0 0 1280 640" font-family="'Cascadia Code','JetBrains Mono',Consolas,'Courier New',monospace" role="img" aria-label="gsoc@katana: ~/fs25/iron-horse terminal showcase"><defs><clipPath id="win"><rect x="24" y="24" width="1232" height="592" rx="12"/></clipPath></defs><rect x="0" y="0" width="1280" height="640" fill="#010409"/>
  <rect x="24" y="24" width="1232" height="592" rx="12" fill="#0d1117" stroke="#30363d" stroke-width="1.5"/>
  <g clip-path="url(#win)"><rect x="24" y="24" width="1232" height="46" fill="#161b22"/>
    <line x1="24" y1="70" x2="1256" y2="70" stroke="#30363d" stroke-width="1"/></g>
  <circle cx="52" cy="47" r="7" fill="#ff5f56"/><circle cx="76" cy="47" r="7" fill="#febc2e"/>
  <circle cx="100" cy="47" r="7" fill="#27c93f"/>
  <text x="640" y="52" fill="#8b949e" font-size="16" text-anchor="middle">gsoc@katana: ~/fs25/iron-horse</text>
  <text x="1236" y="52" fill="#6e7681" font-size="15" text-anchor="end">ironhorse v0.2.2</text><text x="56" y="118" font-size="19"><tspan fill="#3fb950">gsoc@katana</tspan><tspan fill="#8b949e">:</tspan><tspan fill="#58a6ff">~/fs25/iron-horse</tspan><tspan fill="#8b949e">$ </tspan><tspan fill="#e6edf3">ironhorse --status</tspan></text><text x="56" y="164" fill="#c9d1d9" font-size="18">&#9656; engineStall</text><rect x="640" y="147" width="70" height="24" rx="5" fill="#238636"/><text x="675.0" y="164" fill="#e6edf3" text-anchor="middle" font-size="14" font-weight="700">live</text><text x="56" y="200" fill="#c9d1d9" font-size="18">&#9656; engineHealth &#183; drivetrain</text><text x="640" y="200" fill="#39c5cf" font-size="18">wired to backbone</text><text x="56" y="236" fill="#c9d1d9" font-size="18">&#9656; tyres &#183; electrical &#183; visualDirt</text><text x="640" y="236" fill="#6e7681" font-size="18">readouts in progress</text><text x="56" y="272" fill="#c9d1d9" font-size="18">&#9656; cockpit severity HUD</text><text x="640" y="272" fill="#39c5cf" font-size="18">cold / warn / crit</text><text x="56" y="322" fill="#8b949e" font-size="15" letter-spacing="1">// one backbone, every system speaks severity</text><text x="56" y="384" font-size="34" font-weight="800"><tspan fill="#f85149">arcade</tspan><tspan fill="#6e7681" font-size="25">  &#9472;&#9472;&#9654;  </tspan><tspan fill="#3fb950">realism</tspan><tspan fill="#8b949e" font-size="18" font-weight="600">  every system</tspan></text><text x="56" y="436" font-size="19"><tspan fill="#3fb950" font-weight="700">&#10003; engineStall shipping now  &#183;  6 systems on the backbone</tspan></text><text x="56" y="466" font-size="16" fill="#6e7681">modular &#8212; enable what you want, each system tunes independently.</text><text x="56" y="512" font-size="19"><tspan fill="#3fb950">gsoc@katana</tspan><tspan fill="#8b949e">:</tspan><tspan fill="#58a6ff">~/fs25/iron-horse</tspan><tspan fill="#8b949e">$ </tspan></text><rect x="470" y="497" width="11" height="20" fill="#3fb950"/><line x1="24" y1="566" x2="1256" y2="566" stroke="#30363d" stroke-width="1"/><text x="56" y="596" font-size="15" fill="#6e7681">GPLv3 &#183; FS25 &#183; Lua &#183; modular realism framework</text><text x="1200" y="596" font-size="15" fill="#d29922" text-anchor="end" letter-spacing="0.5">keilerhirsch</text><rect x="1211" y="582" width="10" height="16" fill="#3fb950"/></svg>